<svg xmlns="http://www.w3.org/2000/svg" width="562.2" height="346.3" viewBox="0 0 562.2 346.3"><g id="b7ffe8b0-5200-4d2e-8174-fe641aa1abc9" data-name="Layer 2"><g id="a26f92d7-b93e-46c1-8c17-4c3668525cb2" data-name="Layer 3"><path d="M191.5,53.6l1-4.3s-3.4-.2-8.6,4.1c-10,8.2-34.6,38.6-34.6,38.6L52.1,214.9H76.3l73.5-91.3,1.8-3-23.8,94.3H152L191.1,54.2Z" fill="#f4832d"/><polygon points="476.8 42.3 476.8 42.3 432.5 214.9 456.7 214.9 494.6 66.6 494.5 66.4 544.9 66.4 551.7 42.2 476.8 42.2 476.8 42.3" fill="#f4832d"/><path d="M344,.1c-6,0-40,.6-68.1,21.4s-43.9,41.9-53,59.7L243.1.4S186.9-7.8,139.4,53.6L11.9,214.9H36.1L164,53.6s2.3-2.8,6.1-6.7c10.4-10.7,30.5-25.1,42.3-20.9L165.3,214.9h24.2l20.9-83.6c-.7,8.3-.7,22.7,5,36.4,8.8,20.7,32.6,47.6,74.3,47.6,38.9,0,89.7-22.4,121.8-75.4l-19.4,75h24.2l38.1-150,6.2-22.6L335,42.6a77.7,77.7,0,0,0-24.4,4.2c-30.6,10.1-58.2,43.1-58.2,76.3,0,36.3,24.5,53.7,57,50.5,25.3-2.6,52.3-22.8,65-46.1H348.8c-8.7,11.7-21.8,20.7-35.8,22-21.6,2-37.2-9.1-36.2-34.9.6-17.8,17.4-41.9,39-47h0a73.7,73.7,0,0,1,9.9-.5H430.3l-15.7,60.5H393s-29.9,64.2-100.3,64.2c0,0-35.5.3-53.2-34.1S248.1,71,272.3,52s38.9-26.7,71.9-27.9H555.4l6.8-24Z" fill="#f4832d"/><path d="M548.8,239.6s-49.6-7.4-120.1-4.7c-42.4,1.6-92.4,7.8-143.7,18.5C146.7,282.2,0,346.3,0,346.3s42-25.6,128.2-56.2c41.8-14.8,93.3-32,156.8-45.7C439.1,211.1,548.8,239.6,548.8,239.6Z" fill="#103471"/></g></g></svg>